<svg width="130" height="141" viewBox="0 0 130 141" fill="none" xmlns="http://www.w3.org/2000/svg">
<circle cx="65" cy="65" r="35" fill="black"/>
<path fill-rule="evenodd" clip-rule="evenodd" d="M115 65C115 92.6142 92.6142 115 65 115C62.6243 115 60.2874 114.834 58 114.514V129.627C60.2996 129.874 62.635 130 65 130C100.899 130 130 100.899 130 65C130 29.1015 100.899 0 65 0C29.1015 0 0 29.1015 0 65C0 86.7113 10.6448 105.936 27 117.741V97.4976C19.5187 88.7578 15 77.4066 15 65C15 37.3858 37.3858 15 65 15C92.6142 15 115 37.3858 115 65Z" fill="black"/>
<rect x="30" y="51" width="25" height="90" rx="12.5" fill="black"/>
</svg>
